<svg width="203" height="80" viewBox="0 0 203 80" fill="none" xmlns="http://www.w3.org/2000/svg">
<path d="M25.723 40H19.636L17.7149 33.6704H8.00809L6.08696 40H0L9.38322 13.2861H16.2791L25.723 40ZM9.42366 28.9383H16.36L13.3468 19.2113C13.1311 18.4833 12.9693 17.8834 12.8615 17.4115C12.4975 18.8675 11.3515 22.7098 9.42366 28.9383ZM34.1952 11.6886V40H28.6542V11.6886H34.1952ZM52.3167 27.5227C52.3032 26.1611 51.9527 25.1028 51.2651 24.3478C50.5775 23.5929 49.6406 23.2154 48.4542 23.2154C47.2813 23.2154 46.3578 23.5929 45.6837 24.3478C45.0096 25.0893 44.6254 26.1476 44.531 27.5227H52.3167ZM56.3814 38.9282C54.467 39.8854 52.0807 40.364 49.2226 40.364C45.9466 40.364 43.3851 39.4675 41.5381 37.6744C39.7046 35.8679 38.7878 33.2794 38.7878 29.909C38.7878 26.5386 39.6372 23.9232 41.3359 22.0627C43.0615 20.2022 45.3871 19.272 48.3126 19.272C51.2516 19.272 53.5233 20.0944 55.1276 21.7391C56.7319 23.3839 57.534 25.6421 57.534 28.5136V31.2032H44.4097C44.4636 32.7941 44.9287 34.0344 45.805 34.9242C46.6948 35.8005 47.9216 36.2386 49.4855 36.2386C51.8178 36.2386 54.1165 35.7061 56.3814 34.6411V38.9282ZM58.5804 40L65.4763 29.6057L58.9242 19.6562H65.2134L69.177 26.1274L73.1608 19.6562H79.45L72.8373 29.6057L79.7736 40H73.4439L69.177 33.0233L64.8696 40H58.5804Z" fill="#16801A"/>
<path d="M93.4493 29.2214L98.4847 13.3873H104.187L95.148 40H88.9801L79.9609 13.3873H85.6637L90.6586 29.2214C90.9013 30.0438 91.1777 31.1021 91.4877 32.3964C91.8113 33.6906 92.0068 34.5871 92.0742 35.0859C92.2225 33.8726 92.6809 31.9178 93.4493 29.2214ZM117.668 29.2214L122.703 13.3873H128.406L119.367 40H113.199L104.18 13.3873H109.882L114.877 29.2214C115.12 30.0438 115.396 31.1021 115.706 32.3964C116.03 33.6906 116.226 34.5871 116.293 35.0859C116.441 33.8726 116.9 31.9178 117.668 29.2214ZM150.097 26.7341V40H144.536V28.1092C144.536 25.1837 143.444 23.7209 141.26 23.7209C139.71 23.7209 138.584 24.2467 137.883 25.2983C137.195 26.3498 136.851 28.062 136.851 30.4348V40H131.31V11.6886H136.851V17.452C136.851 18.4766 136.771 20.0809 136.609 22.2649H136.892C138.119 20.2696 140.087 19.272 142.797 19.272C145.17 19.272 146.976 19.9124 148.216 21.1931C149.47 22.4739 150.097 24.3209 150.097 26.7341ZM161.344 19.6562V40H155.803V19.6562H161.344ZM158.593 17.1284C156.571 17.1284 155.56 16.2251 155.56 14.4186C155.56 12.5986 156.564 11.6886 158.573 11.6886C160.595 11.6886 161.606 12.5918 161.606 14.3984C161.606 15.2747 161.35 15.9488 160.838 16.4206C160.326 16.8925 159.578 17.1284 158.593 17.1284ZM173.317 33.6299C173.317 34.3984 173.533 34.9781 173.965 35.3691C174.396 35.7465 175.05 35.9353 175.926 35.9353C176.802 35.9353 177.908 35.7263 179.243 35.3084V39.4338C177.868 40.0539 176.122 40.364 174.005 40.364C171.902 40.364 170.338 39.8113 169.313 38.7058C168.289 37.6003 167.777 35.9083 167.777 33.6299V23.822H165.107V21.4762L168.161 19.6158L169.779 15.3286H173.317V19.6562H179.02V23.822H173.317V33.6299ZM195.637 27.5227C195.623 26.1611 195.273 25.1028 194.585 24.3478C193.898 23.5929 192.961 23.2154 191.774 23.2154C190.602 23.2154 189.678 23.5929 189.004 24.3478C188.33 25.0893 187.946 26.1476 187.851 27.5227H195.637ZM199.702 38.9282C197.787 39.8854 195.401 40.364 192.543 40.364C189.267 40.364 186.705 39.4675 184.858 37.6744C183.025 35.8679 182.108 33.2794 182.108 29.909C182.108 26.5386 182.957 23.9232 184.656 22.0627C186.382 20.2022 188.707 19.272 191.633 19.272C194.572 19.272 196.844 20.0944 198.448 21.7391C200.052 23.3839 200.854 25.6421 200.854 28.5136V31.2032H187.73C187.784 32.7941 188.249 34.0344 189.125 34.9242C190.015 35.8005 191.242 36.2386 192.806 36.2386C195.138 36.2386 197.437 35.7061 199.702 34.6411V38.9282Z" fill="white"/>
<path d="M65.8109 62.2063V68H64.8807V54.6936H68.0455C69.6903 54.6936 70.907 54.997 71.6957 55.6036C72.4911 56.2103 72.8888 57.1304 72.8888 58.364C72.8888 59.2673 72.6495 60.0256 72.1709 60.639C71.699 61.2457 70.9912 61.6805 70.0475 61.9434L73.6572 68H72.545L69.1173 62.2063H65.8109ZM65.8109 55.5329V61.4075H68.3488C69.488 61.4075 70.361 61.1547 70.9676 60.6491C71.5811 60.1436 71.8878 59.3953 71.8878 58.4044C71.8878 57.4135 71.5844 56.6889 70.9778 56.2305C70.3711 55.7654 69.3836 55.5329 68.0152 55.5329H65.8109ZM83.3058 64.5723C83.3058 65.671 82.8946 66.5474 82.0722 67.2012C81.2566 67.8551 80.1747 68.182 78.8265 68.182C77.2087 68.182 75.9616 68.0034 75.0853 67.6461V66.7159C76.0425 67.1203 77.266 67.3225 78.7557 67.3225C79.841 67.3225 80.7038 67.0731 81.3442 66.5743C81.9846 66.0755 82.3048 65.4183 82.3048 64.6026C82.3048 64.1105 82.2003 63.6994 81.9913 63.3691C81.7823 63.0388 81.4318 62.7354 80.9397 62.459C80.4544 62.1759 79.7567 61.8793 78.8467 61.5693C77.4851 61.0974 76.5447 60.5885 76.0257 60.0425C75.5066 59.4965 75.2471 58.7516 75.2471 57.8079C75.2471 56.8642 75.6347 56.0789 76.4099 55.452C77.1851 54.8183 78.1929 54.5015 79.4332 54.5015C80.6735 54.5015 81.843 54.7408 82.9418 55.2194L82.6081 56.0182C81.5093 55.5531 80.4611 55.3205 79.4635 55.3205C78.4726 55.3205 77.6806 55.5497 77.0874 56.0081C76.5077 56.4665 76.2178 57.0832 76.2178 57.8584C76.2178 58.3505 76.3088 58.7583 76.4908 59.0819C76.6728 59.3987 76.9593 59.6818 77.3503 59.9312C77.748 60.1739 78.4524 60.4739 79.4635 60.8311C80.4814 61.1749 81.2566 61.5221 81.7891 61.8726C82.3216 62.2164 82.7058 62.6006 82.9418 63.0253C83.1844 63.4499 83.3058 63.9656 83.3058 64.5723ZM93.462 64.5723C93.462 65.671 93.0508 66.5474 92.2284 67.2012C91.4128 67.8551 90.3309 68.182 88.9827 68.182C87.3649 68.182 86.1179 68.0034 85.2416 67.6461V66.7159C86.1988 67.1203 87.4222 67.3225 88.912 67.3225C89.9972 67.3225 90.8601 67.0731 91.5004 66.5743C92.1408 66.0755 92.461 65.4183 92.461 64.6026C92.461 64.1105 92.3565 63.6994 92.1476 63.3691C91.9386 63.0388 91.5881 62.7354 91.096 62.459C90.6107 62.1759 89.913 61.8793 89.003 61.5693C87.6413 61.0974 86.701 60.5885 86.1819 60.0425C85.6629 59.4965 85.4034 58.7516 85.4034 57.8079C85.4034 56.8642 85.791 56.0789 86.5662 55.452C87.3414 54.8183 88.3491 54.5015 89.5894 54.5015C90.8297 54.5015 91.9993 54.7408 93.098 55.2194L92.7643 56.0182C91.6656 55.5531 90.6174 55.3205 89.6198 55.3205C88.6289 55.3205 87.8368 55.5497 87.2436 56.0081C86.6639 56.4665 86.374 57.0832 86.374 57.8584C86.374 58.3505 86.465 58.7583 86.6471 59.0819C86.8291 59.3987 87.1155 59.6818 87.5065 59.9312C87.9042 60.1739 88.6086 60.4739 89.6198 60.8311C90.6376 61.1749 91.4128 61.5221 91.9453 61.8726C92.4779 62.2164 92.8621 62.6006 93.098 63.0253C93.3407 63.4499 93.462 63.9656 93.462 64.5723ZM99.9883 68.182C98.5728 68.182 97.4639 67.7337 96.6617 66.8372C95.8663 65.9407 95.4686 64.6869 95.4686 63.0758C95.4686 61.4648 95.8832 60.2042 96.7123 59.2942C97.5482 58.3775 98.6874 57.9191 100.13 57.9191C100.979 57.9191 101.798 58.0674 102.587 58.364L102.344 59.1628C101.488 58.8797 100.743 58.7381 100.11 58.7381C98.9031 58.7381 97.9863 59.1122 97.3594 59.8605C96.7325 60.602 96.4191 61.6603 96.4191 63.0354C96.4191 64.4038 96.7292 65.4688 97.3493 66.2305C97.9762 66.9855 98.8525 67.363 99.9782 67.363C100.875 67.363 101.707 67.2012 102.476 66.8777V67.7169C101.849 68.027 101.02 68.182 99.9883 68.182ZM112.698 68H111.808V61.5895C111.808 60.5986 111.599 59.8773 111.181 59.4257C110.77 58.9673 110.119 58.7381 109.23 58.7381C108.043 58.7381 107.177 59.0381 106.631 59.638C106.085 60.238 105.812 61.2053 105.812 62.5399V68H104.912V53.8443H105.812V58.3438L105.761 59.6077H105.832C106.196 59.0212 106.658 58.5932 107.218 58.3236C107.784 58.0539 108.488 57.9191 109.331 57.9191C111.575 57.9191 112.698 59.1223 112.698 61.5288V68ZM122.228 59.8706C121.635 59.1156 120.789 58.7381 119.69 58.7381C118.598 58.7381 117.755 59.1122 117.162 59.8605C116.576 60.6087 116.282 61.667 116.282 63.0354C116.282 64.4038 116.579 65.4688 117.172 66.2305C117.772 66.9855 118.615 67.363 119.7 67.363C120.792 67.363 121.638 66.9821 122.238 66.2204C122.838 65.4587 123.138 64.397 123.138 63.0354C123.138 61.6737 122.834 60.6188 122.228 59.8706ZM115.332 63.0455C115.332 61.4344 115.723 60.1773 116.505 59.274C117.287 58.3707 118.359 57.9191 119.72 57.9191C121.082 57.9191 122.15 58.3741 122.925 59.2841C123.701 60.1941 124.088 61.4513 124.088 63.0556C124.088 64.6532 123.697 65.9103 122.915 66.8271C122.133 67.7304 121.051 68.182 119.67 68.182C118.369 68.209 117.314 67.7438 116.505 66.7867C115.696 65.8295 115.305 64.5824 115.332 63.0455ZM133.146 59.8706C132.553 59.1156 131.707 58.7381 130.608 58.7381C129.516 58.7381 128.673 59.1122 128.08 59.8605C127.494 60.6087 127.2 61.667 127.2 63.0354C127.2 64.4038 127.497 65.4688 128.09 66.2305C128.69 66.9855 129.533 67.363 130.618 67.363C131.71 67.363 132.556 66.9821 133.156 66.2204C133.756 65.4587 134.056 64.397 134.056 63.0354C134.056 61.6737 133.752 60.6188 133.146 59.8706ZM126.25 63.0455C126.25 61.4344 126.641 60.1773 127.423 59.274C128.205 58.3707 129.276 57.9191 130.638 57.9191C132 57.9191 133.068 58.3741 133.843 59.2841C134.619 60.1941 135.006 61.4513 135.006 63.0556C135.006 64.6532 134.615 65.9103 133.833 66.8271C133.051 67.7304 131.969 68.182 130.588 68.182C129.287 68.209 128.232 67.7438 127.423 66.7867C126.614 65.8295 126.223 64.5824 126.25 63.0455ZM138.644 53.8443V68H137.744V53.8443H138.644Z" fill="white"/>
<line x1="64" y1="47" x2="141" y2="47" stroke="#16801A" stroke-width="2"/>
</svg>
